<svg xmlns="http://www.w3.org/2000/svg" width="61.769" height="61.769" viewBox="0 0 61.769 61.769"><g transform="translate(0 0)" fill="#fff"><path d="M 30.88448715209961 61.26897811889648 C 26.78238677978516 61.26897811889648 22.80325698852539 60.4656867980957 19.05762672424316 58.88141632080078 C 15.43952751159668 57.3510856628418 12.19002723693848 55.16018676757813 9.399407386779785 52.36956787109375 C 6.608787059783936 49.57894897460938 4.417887210845947 46.32944869995117 2.8875572681427 42.71134567260742 C 1.303287148475647 38.96571731567383 0.4999971389770508 34.98658752441406 0.4999971389770508 30.88448715209961 C 0.4999971389770508 26.78238677978516 1.303287148475647 22.80325698852539 2.8875572681427 19.05762672424316 C 4.417887210845947 15.43952751159668 6.608787059783936 12.19002723693848 9.399407386779785 9.399407386779785 C 12.19002723693848 6.608787059783936 15.43952751159668 4.417887210845947 19.05762672424316 2.8875572681427 C 22.80325698852539 1.303287148475647 26.78238677978516 0.4999971389770508 30.88448715209961 0.4999971389770508 C 34.98658752441406 0.4999971389770508 38.96571731567383 1.303287148475647 42.71134567260742 2.8875572681427 C 46.32944869995117 4.417887210845947 49.57894897460938 6.608787059783936 52.36956787109375 9.399407386779785 C 55.16018676757813 12.19002723693848 57.3510856628418 15.43952751159668 58.88141632080078 19.05762672424316 C 60.4656867980957 22.80325698852539 61.26897811889648 26.78238677978516 61.26897811889648 30.88448715209961 C 61.26897811889648 34.98658752441406 60.4656867980957 38.96571731567383 58.88141632080078 42.71134567260742 C 57.3510856628418 46.32944869995117 55.16018676757813 49.57894897460938 52.36956787109375 52.36956787109375 C 49.57894897460938 55.16018676757813 46.32944869995117 57.3510856628418 42.71134567260742 58.88141632080078 C 38.96571731567383 60.4656867980957 34.98658752441406 61.26897811889648 30.88448715209961 61.26897811889648 Z" stroke="none"/><path d="M 30.88448715209961 0.9999961853027344 C 26.84966659545898 0.9999961853027344 22.93606567382813 1.789997100830078 19.25240707397461 3.348056793212891 C 15.69389724731445 4.853176116943359 12.49782562255859 7.008098602294922 9.752967834472656 9.752967834472656 C 7.008098602294922 12.49782562255859 4.853176116943359 15.69389724731445 3.348056793212891 19.25240707397461 C 1.789997100830078 22.93606567382813 0.9999961853027344 26.84966659545898 0.9999961853027344 30.88448715209961 C 0.9999961853027344 34.91930770874023 1.789997100830078 38.83290863037109 3.348056793212891 42.51656723022461 C 4.853176116943359 46.07507705688477 7.008098602294922 49.27114868164063 9.752967834472656 52.01600646972656 C 12.49782562255859 54.7608757019043 15.69389724731445 56.91579818725586 19.25240707397461 58.42091751098633 C 22.93606567382813 59.97897720336914 26.84966659545898 60.76897811889648 30.88448715209961 60.76897811889648 C 34.91930770874023 60.76897811889648 38.83290863037109 59.97897720336914 42.51656723022461 58.42091751098633 C 46.07507705688477 56.91579818725586 49.27114868164063 54.7608757019043 52.01600646972656 52.01600646972656 C 54.7608757019043 49.27114868164063 56.91579818725586 46.07507705688477 58.42091751098633 42.51656723022461 C 59.97897720336914 38.83290863037109 60.76897811889648 34.91930770874023 60.76897811889648 30.88448715209961 C 60.76897811889648 26.84966659545898 59.97897720336914 22.93606567382813 58.42091751098633 19.25240707397461 C 56.91579818725586 15.69389724731445 54.7608757019043 12.49782562255859 52.01600646972656 9.752967834472656 C 49.27114868164063 7.008098602294922 46.07507705688477 4.853176116943359 42.51656723022461 3.348056793212891 C 38.83290863037109 1.789997100830078 34.91930770874023 0.9999961853027344 30.88448715209961 0.9999961853027344 M 30.88448715209961 -3.814697265625e-06 C 47.9415168762207 -3.814697265625e-06 61.76897811889648 13.82745742797852 61.76897811889648 30.88448715209961 C 61.76897811889648 47.9415168762207 47.9415168762207 61.76897811889648 30.88448715209961 61.76897811889648 C 13.82745742797852 61.76897811889648 -3.814697265625e-06 47.9415168762207 -3.814697265625e-06 30.88448715209961 C -3.814697265625e-06 13.82745742797852 13.82745742797852 -3.814697265625e-06 30.88448715209961 -3.814697265625e-06 Z" stroke="none" fill="gold"/></g><g transform="translate(15.151 15.151)"><path d="M21.165,28.417h3.626a1.559,1.559,0,0,0,1.554-1.554V22.647a2.072,2.072,0,0,0,1.554-2V19.585a5.7,5.7,0,0,0,5.18-5.672V9.77a1.559,1.559,0,0,0-1.554-1.554h-.518V4.072a2.072,2.072,0,1,0-4.144,0V8.216H24.791V4.072a2.072,2.072,0,1,0-4.144,0V8.216h-.518A1.559,1.559,0,0,0,18.575,9.77v4.144a5.7,5.7,0,0,0,5.18,5.672v1.062a2.072,2.072,0,0,0,1.554,2v4.216a.518.518,0,0,1-.518.518H21.165a1.551,1.551,0,0,0-1.5,1.937,1.581,1.581,0,0,0,1.559,1.171h10.3a.518.518,0,0,1,.518.518v.518a.518.518,0,0,1-.518.518H12.878a3.63,3.63,0,0,1-3.626-3.626V18.575h4.662a1.559,1.559,0,0,0,1.554-1.554V3.554A1.559,1.559,0,0,0,13.914,2H3.554A1.559,1.559,0,0,0,2,3.554V17.021a1.559,1.559,0,0,0,1.554,1.554H8.216v9.842a4.669,4.669,0,0,0,4.662,4.662H31.525a1.559,1.559,0,0,0,1.554-1.554v-.518a1.559,1.559,0,0,0-1.554-1.554h-10.3a.57.57,0,0,1-.559-.388.5.5,0,0,1,.145-.5A.481.481,0,0,1,21.165,28.417ZM27.9,4.072a1.036,1.036,0,0,1,2.072,0v5.7H27.9Zm-6.216,0a1.036,1.036,0,1,1,2.072,0v5.7H21.683ZM23.76,18.544a4.662,4.662,0,0,1-4.149-4.631V9.77a.518.518,0,0,1,.518-.518h.518v1.036a.518.518,0,0,0,.518.518h3.108a.518.518,0,0,0,.518-.518V9.252h2.072v1.036a.518.518,0,0,0,.518.518h3.108a.518.518,0,0,0,.518-.518V9.252h.518a.518.518,0,0,1,.518.518v4.144a4.662,4.662,0,0,1-4.149,4.631,2.067,2.067,0,1,0-4.133,0Zm1.031,2.1V18.575a1.036,1.036,0,0,1,2.072,0v2.072a1.036,1.036,0,0,1-2.072,0ZM3.554,17.539a.518.518,0,0,1-.518-.518V3.554a.518.518,0,0,1,.518-.518h10.36a.518.518,0,0,1,.518.518V17.021a.518.518,0,0,1-.518.518Z" transform="translate(-2 -2)" fill="gold"/><rect height="1.165" transform="translate(23.698 16.705)" fill="gold"/><path d="M15.175,11.388a.518.518,0,0,0-.44-.243h-2.59V7.518a.518.518,0,0,0-.4-.5.51.51,0,0,0-.58.269L8.058,13.5a.518.518,0,0,0,.461.751h2.59v3.626a.518.518,0,0,0,.4.5.47.47,0,0,0,.119.016.518.518,0,0,0,.461-.285L15.2,11.9a.522.522,0,0,0-.021-.508Zm-3.03,4.294V13.734a.518.518,0,0,0-.518-.518H9.359l1.751-3.5v1.948a.518.518,0,0,0,.518.518H13.9Z" transform="translate(-4.894 -4.411)" fill="gold"/></g></svg>