<svg xmlns="http://www.w3.org/2000/svg" width="61" height="62" viewBox="0 0 61 62">
  <g id="Group_15998" data-name="Group 15998" transform="translate(-0.437 -0.121)">
    <g id="Ellipse_1253" data-name="Ellipse 1253" transform="translate(0.437 0.121)" fill="#fff" stroke="gold" stroke-width="1">
      <ellipse cx="30.5" cy="31" rx="30.5" ry="31" stroke="none"/>
      <ellipse cx="30.5" cy="31" rx="30" ry="30.5" fill="none"/>
    </g>
    <g id="Outline_33_" transform="translate(14.147 14.267)">
      <path id="Path_11500" data-name="Path 11500" d="M.044.687V5.011A2.29,2.29,0,0,0,1.555,7.162V35.756H0v1.061H36.2V35.756H34.645V7.186a2.29,2.29,0,0,0,1.582-2.175V.687H.044ZM1.1,5.011V3.869H3.556V5.011a1.226,1.226,0,1,1-2.452,0ZM17.853,35.756H5.538V34.094H17.853Zm0-2.722H5.538V20.979a.531.531,0,0,1,.53-.53H17.322a.531.531,0,0,1,.53.53Zm2.26,2.722h-1.2V20.979a1.593,1.593,0,0,0-1.591-1.591H11.843V17.055H23.085V30.8l-1.522.424A2.85,2.85,0,0,0,20.112,35.756ZM11.843,15.994V10.656a.531.531,0,0,1,.53-.53H22.554a.531.531,0,0,1,.53.53v5.338ZM26.756,35.756H22.327a1.789,1.789,0,0,1-.48-3.511c4.358-1.067,4.887-1.722,5.718-1.09.658.5.446,1.234.486,1.522A2.1,2.1,0,0,0,26.756,35.756Zm1.826,0a1.043,1.043,0,1,1,1.043-1.043A1.044,1.044,0,0,1,28.582,35.756Zm5,0H30.407a2.1,2.1,0,0,0-1.3-3.078V18.257h1.167a1.662,1.662,0,1,0,0-3.323H26.885a1.662,1.662,0,1,0,0,3.323h1.167V30.2c-1.29-.825-2.392.007-3.906.3V10.656a1.593,1.593,0,0,0-1.591-1.591H12.373a1.593,1.593,0,0,0-1.591,1.591v8.732H6.069a1.593,1.593,0,0,0-1.591,1.591V35.756H2.616V7.279a2.285,2.285,0,0,0,1.471-.806,2.283,2.283,0,0,0,3.512,0,2.283,2.283,0,0,0,3.512,0,2.283,2.283,0,0,0,3.512,0,2.283,2.283,0,0,0,3.512,0,2.283,2.283,0,0,0,3.512,0,2.283,2.283,0,0,0,3.512,0,2.283,2.283,0,0,0,3.512,0,2.283,2.283,0,0,0,3.512,0,2.286,2.286,0,0,0,1.4.8Zm-6.7-18.56a.6.6,0,0,1,0-1.2h3.394a.6.6,0,0,1,0,1.2ZM4.617,5.011V3.869H7.069V5.011a1.226,1.226,0,1,1-2.452,0Zm3.512,0V3.869h2.452V5.011a1.226,1.226,0,1,1-2.452,0Zm3.512,0V3.869h2.452V5.011a1.226,1.226,0,1,1-2.452,0Zm3.512,0V3.869h2.452V5.011a1.226,1.226,0,1,1-2.452,0Zm3.512,0V3.869h2.452V5.011a1.226,1.226,0,1,1-2.452,0Zm3.512,0V3.869h2.452V5.011a1.226,1.226,0,1,1-2.452,0Zm3.512,0V3.869h2.452V5.011a1.226,1.226,0,1,1-2.452,0Zm3.512,0V3.869h2.452V5.011a1.226,1.226,0,1,1-2.452,0Zm5.964,0a1.226,1.226,0,1,1-2.452,0V3.869h2.452Zm0-2.2H1.1V1.748H35.166Z" transform="translate(0 -0.687)" fill="gold"/>
      <path id="Path_11501" data-name="Path 11501" d="M98.043,297.938a5.126,5.126,0,1,0,5.126,5.126A5.132,5.132,0,0,0,98.043,297.938Zm4.03,5.656H99.758v-1.06h2.315A3.958,3.958,0,0,1,102.073,303.594ZM98.7,301.473v3.182h3.087a4.065,4.065,0,1,1,0-3.182Z" transform="translate(-86.348 -276.922)" fill="gold"/>
      <path id="Path_11502" data-name="Path 11502" d="M94.667,295.188h1.061v1.061H94.667Z" transform="translate(-87.974 -274.366)" fill="gold"/>
      <path id="Path_11503" data-name="Path 11503" d="M294.5,157.688h1.061v2.545H294.5Z" transform="translate(-273.678 -146.588)" fill="gold"/>
      <path id="Path_11504" data-name="Path 11504" d="M294.5,248.688h1.061v5.373H294.5Z" transform="translate(-273.678 -231.154)" fill="gold"/>
      <path id="Path_11505" data-name="Path 11505" d="M325.312,454.875h1.061v1.061h-1.061Z" transform="translate(-302.312 -422.763)" fill="gold"/>
    </g>
  </g>
</svg>
